<svg width="92" height="92" viewBox="0 0 92 92" fill="none" xmlns="http://www.w3.org/2000/svg">
<g clip-path="url(#clip0)">
<path d="M4.99082 64.0145L8.04515 70.2881C11.3616 75.9175 15.893 80.7452 21.2811 84.4083H70.7196C76.2711 80.6343 80.9145 75.6248 84.2553 69.7749L87.1614 63.6165C89.0095 58.7559 90.0242 53.4848 90.0242 47.9759C90.0242 23.6622 70.3141 3.95215 46.0004 3.95215C21.6867 3.95215 1.97656 23.6622 1.97656 47.9759C1.97656 53.6352 3.04552 59.0445 4.99082 64.0145Z" fill="#FFC839"/>
<path d="M67.4323 62.4845C68.562 63.3619 69.9562 63.8382 71.3923 63.8382C72.8282 63.8382 74.2224 63.3617 75.3521 62.4845C76.1855 61.8372 77.074 60.9568 77.8531 59.8492C77.6287 59.7838 77.4021 59.7216 77.1721 59.6641C76.9322 59.6039 76.7213 59.4596 76.5853 59.2677C75.9578 58.3824 75.7839 57.0139 75.7499 56.0215C75.3097 56.5341 74.8477 56.963 74.4064 57.3057C72.6361 58.6805 70.1462 58.6787 68.3782 57.3057C67.9369 56.963 67.4749 56.5341 67.0347 56.0215C66.9997 57.036 66.8191 58.4437 66.1569 59.3261C66.0439 59.4767 65.8698 59.5998 65.6612 59.6515C65.415 59.7124 65.1724 59.7795 64.9316 59.8497C65.7106 60.957 66.599 61.8374 67.4323 62.4845Z" fill="#FCAD6D"/>
<path d="M68.3782 57.3057C67.9369 56.963 67.4749 56.5341 67.0347 56.0215C66.9997 57.036 66.8191 58.4437 66.1569 59.3261C66.0439 59.4767 65.8698 59.5998 65.6612 59.6515C65.415 59.7124 65.1724 59.7795 64.9316 59.8497C65.7108 60.9571 66.5991 61.8376 67.4324 62.4847C67.9304 62.8715 68.4801 63.1801 69.0619 63.4047C70.622 62.0974 71.2504 60.1173 71.469 58.3332C70.3785 58.3499 69.2837 58.009 68.3782 57.3057Z" fill="#FCAD6D"/>
<path d="M87.1621 63.6165C86.2551 62.8961 85.081 62.3957 83.5599 62.2714C82.9977 62.2254 82.6985 62.0072 82.0358 61.6336C80.6553 60.8551 79.2259 60.2342 77.6682 59.7976C76.9074 60.8912 76.0344 61.7573 75.217 62.3919C74.1262 63.239 72.7799 63.6991 71.3935 63.6991C70.007 63.6991 68.6608 63.239 67.5699 62.3919C66.7523 61.7569 65.879 60.8906 65.1182 59.7969C63.5672 60.2324 62.1277 60.8572 60.7511 61.6336C60.0884 62.0074 59.7893 62.2255 59.2268 62.2714C54.4457 62.6622 53.0799 66.7598 52.7275 69.7751H84.2562C85.3769 67.8122 86.3494 65.7539 87.1621 63.6165Z" fill="#FF4155"/>
<path d="M67.5082 64.3309C68.1662 64.0655 68.7205 63.7121 69.1874 63.2966C68.609 63.0785 68.0625 62.7754 67.5689 62.3919C66.7513 61.7569 65.8781 60.8906 65.1173 59.7969C63.5662 60.2324 62.1267 60.8572 60.7501 61.6336C60.0875 62.0074 59.7883 62.2255 59.2259 62.2714C54.4447 62.6622 53.0789 66.7598 52.7266 69.7751H59.4891C59.6413 64.2853 62.3323 66.4182 67.5082 64.3309Z" fill="#E80054"/>
<path d="M16.7213 62.9487C17.8303 63.8098 19.1986 64.2777 20.6083 64.2777C22.0178 64.2777 23.3863 63.81 24.4951 62.9487C25.3201 62.3082 26.2004 61.4351 26.9698 60.3348C26.7777 60.28 26.5843 60.227 26.3881 60.1778C26.1482 60.1178 25.9373 59.9733 25.8013 59.7814C25.1738 58.8961 25 57.5276 24.9659 56.5352C24.5257 57.0478 24.0637 57.4767 23.6224 57.8194C21.8521 59.1942 19.3622 59.1924 17.5942 57.8194C17.1527 57.4767 16.6909 57.0478 16.2507 56.5352C16.2156 57.5497 16.0351 58.9573 15.3729 59.8398C15.2599 59.9904 15.0858 60.1135 14.8772 60.165C14.6646 60.2177 14.4545 60.2743 14.2461 60.3338C15.0155 61.4345 15.8962 62.308 16.7213 62.9487Z" fill="#FCAD6D"/>
<path d="M20.5077 58.8448C19.4763 58.8238 18.4506 58.4834 17.5942 57.8184C17.1527 57.4757 16.6909 57.0468 16.2507 56.5342C16.2156 57.5487 16.0351 58.9564 15.3729 59.8388C15.2599 59.9894 15.0858 60.1125 14.8772 60.1642C14.6646 60.2169 14.4545 60.2735 14.2461 60.333C15.0157 61.4335 15.8963 62.307 16.7215 62.9478C16.9773 63.1465 17.2474 63.3231 17.5283 63.4791C19.4987 61.9728 20.2611 60.26 20.5077 58.8448Z" fill="#FD995B"/>
<path d="M32.7744 62.785C32.2122 62.739 31.913 62.5209 31.2501 62.1473C29.8696 61.3689 28.4402 60.7479 26.8825 60.3113C26.1217 61.4047 25.2487 62.2709 24.4313 62.9056C23.3405 63.7526 21.9942 64.2128 20.6078 64.2128C19.2213 64.2128 17.8751 63.7526 16.7842 62.9056C15.9666 62.2708 15.0933 61.4043 14.3325 60.3105C12.7815 60.7461 11.3422 61.3709 9.96542 62.1473C9.30273 62.5211 9.00355 62.7392 8.44113 62.785C7.00291 62.9025 5.87573 63.3571 4.99023 64.0152C5.84411 66.1969 6.86869 68.2928 8.04456 70.2888H39.2735C38.9213 67.2734 37.5555 63.176 32.7744 62.785Z" fill="#73C3F9"/>
<path d="M9.65959 70.2888C9.76777 65.6313 10.7596 67.4555 16.2371 64.3316C16.742 64.0436 17.1892 63.7428 17.5874 63.4337C17.3078 63.2792 17.0388 63.1034 16.7842 62.9058C15.9666 62.2709 15.0933 61.4045 14.3325 60.3105C12.7815 60.7463 11.3422 61.3711 9.96542 62.1473C9.30273 62.5211 9.00355 62.7392 8.44113 62.785C7.00291 62.9025 5.87573 63.3571 4.99023 64.015C5.84411 66.1968 6.86869 68.2926 8.04456 70.2888H9.65959Z" fill="#4FABF7"/>
<path d="M39.5164 83.2396C41.3663 84.6762 43.6492 85.4564 46.0005 85.4564C48.3515 85.4564 50.6344 84.6762 52.4843 83.2396C53.8438 82.1838 55.293 80.7483 56.5654 78.944C56.1794 78.8305 55.7895 78.7223 55.3933 78.6229C55.0034 78.5252 54.6607 78.2907 54.4395 77.9787C53.4198 76.54 53.1373 74.316 53.0818 72.7031C52.3664 73.5363 51.6157 74.2332 50.8984 74.7902C48.0216 77.0242 43.9748 77.0214 41.1018 74.7902C40.3845 74.2332 39.6338 73.5363 38.9184 72.7031C38.8617 74.3518 38.5682 76.6394 37.4921 78.0736C37.3084 78.3184 37.0256 78.5183 36.6864 78.6024C36.2637 78.707 35.8479 78.8229 35.4355 78.9446C36.7081 80.7484 38.1571 82.184 39.5164 83.2396Z" fill="#FCAD6D"/>
<path d="M45.6542 76.4568C44.0399 76.3873 42.443 75.8317 41.1018 74.7902C40.3845 74.2332 39.6338 73.5363 38.9184 72.7031C38.8617 74.3518 38.5682 76.6394 37.4921 78.0736C37.3084 78.3184 37.0256 78.5184 36.6864 78.6024C36.2637 78.707 35.8479 78.8229 35.4355 78.9446C36.7079 80.7484 38.1569 82.184 39.5163 83.2396C40.1948 83.7665 40.9318 84.2042 41.7088 84.5483C44.0368 82.2312 45.1437 79.1579 45.6542 76.4568Z" fill="#FD995B"/>
<path d="M63.2954 81.8237C61.052 80.5585 58.7288 79.5495 56.1976 78.8399C54.9613 80.6171 53.5425 82.0245 52.2143 83.0561C50.4415 84.4329 48.2536 85.1806 46.0005 85.1806C43.7472 85.1806 41.5595 84.4329 39.7867 83.0561C38.4581 82.0244 37.0389 80.6163 35.8025 78.8389C33.2819 79.5468 30.9427 80.5621 28.7054 81.8237C27.6284 82.431 27.1421 82.7855 26.2284 82.8601C24.2355 83.0231 22.6099 83.5842 21.2812 84.4085C28.3281 89.1991 36.8368 91.9999 46.0003 91.9999C55.1638 91.9999 63.6726 89.1991 70.7196 84.4085C69.3911 83.5842 67.7655 83.0231 65.7724 82.8601C64.8585 82.7855 64.3725 82.431 63.2954 81.8237Z" fill="#3C58A0"/>
<path d="M39.7867 83.0561C38.4581 82.0244 37.0389 80.6163 35.8025 78.8389C33.2819 79.5468 30.9427 80.5621 28.7054 81.8237C27.6283 82.431 27.1421 82.7855 26.2284 82.8601C24.2355 83.0231 22.6099 83.5842 21.2812 84.4085C24.6509 86.6991 28.3555 88.5335 32.3054 89.8257C33.3969 89.2458 35.4426 88.5632 39.2743 86.3963C40.3051 85.8134 41.1804 85.1098 41.9254 84.3278C41.1669 83.9954 40.448 83.5695 39.7867 83.0561Z" fill="#2A428C"/>
<path d="M44.8785 9.99979C44.8785 7.6847 46.7726 5.79061 49.0876 5.79061H69.1284V4.20918C69.1284 1.89409 67.2341 0 64.919 0H43.1574C40.8423 0 38.9482 1.89409 38.9482 4.20918V21.4881C38.9482 23.8032 40.8423 25.6973 43.1574 25.6973H44.8783V9.99979H44.8785Z" fill="#4FABF7"/>
<path d="M55.1679 0H43.1574C40.8423 0 38.9482 1.89409 38.9482 4.20918V21.4881C38.9482 23.8032 40.8423 25.6973 43.1574 25.6973H44.8783V9.99979C44.8783 7.6847 46.7724 5.79061 49.0875 5.79061H55.0786C55.1318 5.61721 55.1679 5.52198 55.1679 5.52198C52.1817 2.53575 55.1679 0 55.1679 0V0Z" fill="#1886EA"/>
<path d="M70.5803 5.52148H48.8186C46.5035 5.52148 44.6094 7.41557 44.6094 9.73066V27.0096C44.6094 29.3247 46.5035 31.2188 48.8186 31.2188C49.4103 31.2188 49.7382 31.8983 49.3763 32.3664C48.9907 32.8652 48.5585 33.3303 48.0788 33.7529C47.1836 34.5414 47.6872 36.158 48.8223 36.1544C51.7074 36.1454 54.4113 34.681 56.2515 32.2956C56.7687 31.6252 57.5559 31.2186 58.4025 31.2186H70.58C72.8951 31.2186 74.7891 29.3245 74.7891 27.0094V9.73066C74.7895 7.41557 72.8954 5.52148 70.5803 5.52148Z" fill="#E9EFFF"/>
<path d="M48.8186 5.52166C46.5035 5.52166 44.6094 7.41575 44.6094 9.73084V27.0098C44.6094 29.3249 46.5035 31.219 48.8186 31.219C49.4103 31.219 49.7382 31.8985 49.3763 32.3666C48.9907 32.8654 48.5585 33.3305 48.0788 33.7531C47.1836 34.5416 47.6872 36.1582 48.8223 36.1546C51.7074 36.1456 54.4113 34.6812 56.2515 32.2958C56.7687 31.6254 57.5559 31.2188 58.4025 31.2188H63.8397C57.2991 27.3974 60.1732 20.6638 60.1732 20.6638L59.3184 16.8078C52.4181 12.7624 55.1673 5.52148 55.1673 5.52148H48.8186V5.52166Z" fill="#BEC8F7"/>
<path d="M52.8751 20.7816C53.9621 20.5246 54.635 19.4352 54.378 18.3482C54.1211 17.2612 53.0317 16.5884 51.9447 16.8453C50.8577 17.1023 50.1849 18.1917 50.4418 19.2787C50.6987 20.3656 51.7882 21.0385 52.8751 20.7816Z" fill="#1886EA"/>
<path d="M59.7736 20.7796C60.8606 20.5227 61.5334 19.4332 61.2765 18.3463C61.0195 17.2593 59.9301 16.5864 58.8431 16.8434C57.7562 17.1003 57.0833 18.1898 57.3402 19.2767C57.5972 20.3637 58.6866 21.0366 59.7736 20.7796Z" fill="#1886EA"/>
<path d="M67.6408 20.267C68.4306 19.4772 68.4306 18.1966 67.6408 17.4068C66.851 16.617 65.5705 16.617 64.7807 17.4068C63.9909 18.1966 63.9909 19.4772 64.7807 20.267C65.5705 21.0568 66.851 21.0568 67.6408 20.267Z" fill="#4FABF7"/>
<path d="M43.632 39.1975C36.52 40.1665 35.844 44.1989 35.8408 45.6783C35.8401 45.9886 35.6683 46.2761 35.3892 46.4117C31.6898 48.2115 33.6844 56.885 33.6844 56.885C34.056 56.9098 34.6132 57.2286 34.9032 57.3691C34.9742 56.9271 35.0901 56.492 35.2539 56.0714C35.3786 55.7508 35.5346 55.427 35.7296 55.1212C36.0679 54.5904 36.2219 53.9644 36.1759 53.3383C36.0429 51.5289 35.9387 48.1317 38.3271 47.057C40.3506 46.1465 42.8328 46.6737 44.4157 47.2C45.4437 47.5418 46.5572 47.5418 47.5852 47.2C49.168 46.6737 51.6501 46.1465 53.6737 47.057C56.0555 48.1287 55.9575 51.5086 55.8262 53.3229C55.7805 53.9536 55.9304 54.5863 56.2713 55.1212C56.4725 55.4369 56.6323 55.7719 56.7589 56.1023C56.9165 56.5132 57.0285 56.9378 57.0978 57.3691C57.4635 57.1919 58.1542 56.8307 58.6013 56.8938C58.6561 54.9972 58.8311 52.9527 58.8311 52.9527C60.9386 42.6302 51.2898 38.154 43.632 39.1975Z" fill="#2A428C"/>
<path d="M43.632 39.1979C36.52 40.1669 35.844 44.1993 35.8408 45.6787C35.8401 45.989 35.6683 46.2765 35.3892 46.4121C31.6898 48.2119 33.6844 56.8854 33.6844 56.8854C34.056 56.9102 34.6132 57.229 34.9032 57.3695C34.9742 56.9275 35.0901 56.4924 35.2539 56.0718C35.3786 55.7512 35.5346 55.4274 35.7296 55.1216C36.0679 54.5908 36.2219 53.9648 36.1759 53.3387C36.0429 51.5293 35.9387 48.1321 38.3271 47.0574C40.3506 46.1469 42.8328 46.6741 44.4157 47.2004C44.8487 47.3444 45.297 47.424 45.7475 47.4468C45.6785 47.3284 45.6048 47.2107 45.5224 47.0948C42.4713 42.8063 46.7124 39.6814 47.5309 39.1353C46.2183 39.0047 44.8979 39.0254 43.632 39.1979Z" fill="#1C2E7A"/>
<path d="M59.2322 57.1402C58.6782 56.6326 57.5749 56.8899 57.0977 57.2007C57.2023 57.8516 57.2082 58.5175 57.1178 59.175L56.5549 63.2753C56.5549 63.6057 56.5444 63.93 56.5254 64.2488C57.8982 64.6628 58.5801 63.4305 58.6949 62.5847C58.7443 62.2207 58.8252 61.8618 58.9373 61.5116C59.3026 60.371 60.6201 58.412 59.2322 57.1402Z" fill="#FCAD6D"/>
<path d="M32.7691 57.1402C33.3231 56.6326 34.4263 56.8899 34.9034 57.2007C34.7988 57.8516 34.7929 58.5175 34.8833 59.175L35.4463 63.2753C35.4463 63.6057 35.4567 63.93 35.4759 64.2488C34.1031 64.6628 33.4212 63.4305 33.3062 62.5847C33.2568 62.2207 33.1759 61.8618 33.0638 61.5116C32.6987 60.371 31.3812 58.412 32.7691 57.1402Z" fill="#FD995B"/>
<path d="M56.9274 55.9339C56.8007 55.6032 56.641 55.2685 56.4397 54.9528C56.0989 54.4178 55.9488 53.7853 55.9946 53.1545C56.126 51.3402 56.0555 47.7919 53.674 46.7202C51.6505 45.8097 49.1687 46.3369 47.5858 46.8633C46.5578 47.205 45.4437 47.205 44.4157 46.8633C42.8329 46.3369 40.3509 45.8097 38.3276 46.7202C35.9392 47.7949 35.875 51.3605 36.008 53.1699C36.054 53.796 35.9 54.422 35.5616 54.9528C35.3667 55.2586 35.2107 55.5824 35.086 55.903C34.6814 56.9426 34.5633 58.07 34.715 59.174L35.2781 63.2754C35.2781 69.1716 38.4255 73.1792 41.1028 75.2582C42.5003 76.3433 44.2249 76.9329 46.001 76.9329C47.7772 76.9329 49.5016 76.3435 50.8991 75.2582C53.5764 73.1792 56.7238 69.1714 56.7238 63.2754L57.2868 59.1751C57.4364 58.0819 57.3227 56.9653 56.9274 55.9339Z" fill="#F9BA8F"/>
<path d="M48.922 75.2582C46.2446 73.1792 43.0972 69.1714 43.0972 63.2754L42.5341 59.174C42.3824 58.07 42.5005 56.9426 42.9051 55.903C43.0298 55.5824 43.1858 55.2588 43.3807 54.9528C43.7191 54.422 43.8731 53.7958 43.8271 53.1699C43.7069 51.5339 43.7482 48.4625 45.5226 47.0943C45.1482 47.0586 44.7766 46.9833 44.4157 46.8633C42.8329 46.3369 40.3509 45.8097 38.3276 46.7202C35.9392 47.7949 35.875 51.3605 36.008 53.1699C36.054 53.796 35.9 54.422 35.5616 54.9528C35.3667 55.2586 35.2107 55.5824 35.086 55.903C34.6814 56.9426 34.5633 58.07 34.715 59.174L35.2781 63.2754C35.2781 69.1716 38.4255 73.1792 41.1028 75.2582C42.5003 76.3433 44.2249 76.9329 46.001 76.9329C47.3783 76.9329 48.7238 76.5769 49.9106 75.9117C49.5667 75.7191 49.2357 75.5018 48.922 75.2582Z" fill="#FCAD6D"/>
<path d="M69.9352 35.4043C65.5587 36.0007 65.1427 38.482 65.1407 39.3923C65.1404 39.5833 65.0345 39.7601 64.8629 39.8437C62.5865 40.9511 63.8137 46.2885 63.8137 46.2885C64.0423 46.3038 64.3853 46.5 64.5638 46.5865C64.6074 46.3144 64.6788 46.0467 64.7796 45.7879C64.8563 45.5906 64.9522 45.3915 65.0723 45.2032C65.2805 44.8765 65.3752 44.4913 65.347 44.106C65.2653 42.9925 65.2009 40.902 66.6708 40.2408C67.916 39.6805 69.4434 40.0049 70.4174 40.3288C71.0499 40.5393 71.7353 40.5393 72.3678 40.3288C73.3419 40.0049 74.8692 39.6805 76.1144 40.2408C77.58 40.9002 77.5198 42.9801 77.4389 44.0965C77.4107 44.4847 77.5031 44.8739 77.7127 45.203C77.8366 45.3973 77.9348 45.6034 78.0128 45.8068C78.1097 46.0598 78.1787 46.3211 78.2213 46.5863C78.4462 46.4772 78.8714 46.2549 79.1465 46.2939C79.1801 45.1269 79.2879 43.8687 79.2879 43.8687C80.5851 37.5167 74.6475 34.7623 69.9352 35.4043Z" fill="#2A428C"/>
<path d="M69.9352 35.405C65.5587 36.0014 65.1427 38.4827 65.1407 39.393C65.1404 39.584 65.0345 39.7608 64.8629 39.8443C62.5865 40.9517 63.8137 46.2892 63.8137 46.2892C64.0423 46.3045 64.3853 46.5007 64.5638 46.5871C64.6074 46.3151 64.6788 46.0473 64.7796 45.7886C64.8563 45.5913 64.9522 45.392 65.0723 45.2039C65.2805 44.8772 65.3752 44.4919 65.347 44.1067C65.2653 42.9932 65.2009 40.9027 66.6708 40.2414C67.916 39.6812 69.4433 40.0055 70.4174 40.3295C70.6839 40.4181 70.9597 40.4671 71.237 40.4811C71.1944 40.4082 71.1491 40.336 71.0984 40.2646C69.2209 37.6257 71.8307 35.7027 72.3345 35.3667C71.5266 35.286 70.7141 35.2988 69.9352 35.405Z" fill="#1C2E7A"/>
<path d="M79.5358 46.4455C79.195 46.1332 78.5159 46.2915 78.2223 46.4827C78.2866 46.8832 78.2902 47.2929 78.2347 47.6976L77.8883 50.2208C77.8883 50.4242 77.8818 50.6236 77.8701 50.8198C78.7148 51.0746 79.1346 50.3162 79.2052 49.7958C79.2356 49.5717 79.2853 49.3509 79.3543 49.1354C79.5793 48.4336 80.3899 47.2281 79.5358 46.4455Z" fill="#FCAD6D"/>
<path d="M63.2507 46.4455C63.5915 46.1332 64.2706 46.2915 64.5642 46.4827C64.4998 46.8832 64.4963 47.2929 64.5518 47.6976L64.8982 50.2208C64.8982 50.4242 64.9047 50.6236 64.9164 50.8198C64.0717 51.0746 63.6519 50.3162 63.5813 49.7958C63.5509 49.5717 63.5012 49.3509 63.4322 49.1354C63.2074 48.4336 62.3966 47.2281 63.2507 46.4455Z" fill="#FD995B"/>
<path d="M78.1173 45.7036C78.0393 45.5002 77.941 45.2941 77.8172 45.0998C77.6075 44.7706 77.5152 44.3814 77.5434 43.9933C77.6242 42.8769 77.5809 40.6933 76.1152 40.0339C74.8702 39.4736 73.3428 39.798 72.3687 40.1219C71.7362 40.3323 71.0507 40.3323 70.418 40.1219C69.444 39.7981 67.9166 39.4736 66.6716 40.0339C65.2017 40.6951 65.1624 42.8893 65.2441 44.0028C65.2725 44.3881 65.1776 44.7733 64.9694 45.1C64.8493 45.2883 64.7534 45.4874 64.6767 45.6847C64.4276 46.3244 64.355 47.0182 64.4483 47.6976L64.7947 50.2213C64.7947 53.8495 66.7316 56.3157 68.3789 57.5951C69.2389 58.2628 70.3002 58.6256 71.393 58.6256C72.4861 58.6256 73.5473 58.2628 74.4071 57.5951C76.0547 56.3157 77.9913 53.8495 77.9913 50.2213L78.3378 47.6981C78.4307 47.0252 78.3606 46.3382 78.1173 45.7036Z" fill="#F9BA8F"/>
<path d="M73.1906 57.5953C71.5431 56.3159 69.6064 53.8497 69.6064 50.2215L69.2599 47.6977C69.1667 47.0183 69.2393 46.3246 69.4883 45.6849C69.5651 45.4876 69.661 45.2885 69.781 45.1002C69.9893 44.7735 70.084 44.3883 70.0558 44.003C69.9818 42.9962 70.0073 41.1061 71.0992 40.2642C70.8687 40.2423 70.6401 40.1958 70.418 40.1219C69.4439 39.798 67.9166 39.4736 66.6716 40.0339C65.2017 40.6951 65.1624 42.8893 65.2441 44.0028C65.2725 44.3881 65.1776 44.7733 64.9694 45.1C64.8493 45.2883 64.7534 45.4874 64.6767 45.6847C64.4276 46.3244 64.355 47.0182 64.4483 47.6976L64.7947 50.2213C64.7947 53.8495 66.7316 56.3157 68.3789 57.5951C69.2389 58.2628 70.3002 58.6256 71.393 58.6256C72.2406 58.6256 73.0686 58.4066 73.7989 57.9973C73.5875 57.8788 73.3838 57.7452 73.1906 57.5953Z" fill="#FCAD6D"/>
<path d="M19.15 35.917C14.7735 36.5134 14.3576 38.9947 14.3556 39.905C14.3552 40.096 14.2494 40.2728 14.0778 40.3564C11.8013 41.4638 13.0286 46.8012 13.0286 46.8012C13.2572 46.8165 13.6 47.0127 13.7786 47.0992C13.8223 46.8271 13.8936 46.5594 13.9944 46.3006C14.0711 46.1033 14.1671 45.9042 14.2871 45.7159C14.4954 45.3893 14.5901 45.004 14.5619 44.6188C14.4801 43.5052 14.4158 41.4147 15.8856 40.7535C17.1307 40.1932 18.6582 40.5176 19.6323 40.8415C20.2648 41.052 20.9501 41.052 21.5826 40.8415C22.5567 40.5176 24.084 40.1932 25.3293 40.7535C26.7948 41.4129 26.7346 43.4928 26.6538 44.6092C26.6255 44.9974 26.7179 45.3867 26.9276 45.7157C27.0514 45.91 27.1497 46.1161 27.2277 46.3195C27.3245 46.5725 27.3935 46.8338 27.4361 47.099C27.6611 46.9899 28.0862 46.7676 28.3613 46.8066C28.3951 45.6396 28.5027 44.3814 28.5027 44.3814C29.7997 38.0294 23.8621 35.275 19.15 35.917Z" fill="#2A428C"/>
<path d="M19.15 35.9176C14.7735 36.514 14.3576 38.9953 14.3556 39.9056C14.3552 40.0966 14.2494 40.2734 14.0778 40.357C11.8013 41.4644 13.0286 46.8018 13.0286 46.8018C13.2572 46.8171 13.6 47.0133 13.7786 47.0998C13.8223 46.8277 13.8936 46.56 13.9944 46.3012C14.0711 46.1039 14.1671 45.9048 14.2871 45.7165C14.4954 45.3898 14.5901 45.0046 14.5619 44.6193C14.4801 43.5058 14.4158 41.4153 15.8856 40.7541C17.1307 40.1938 18.6582 40.5182 19.6323 40.8421C19.8988 40.9307 20.1746 40.9798 20.4518 40.9936C20.4093 40.9207 20.364 40.8484 20.3133 40.7771C18.4357 38.1382 21.0455 36.2152 21.5494 35.8792C20.7413 35.7989 19.929 35.8114 19.15 35.9176Z" fill="#1C2E7A"/>
<path d="M28.7495 46.9582C28.4086 46.6459 27.7296 46.8042 27.4362 46.9954C27.5005 47.3959 27.5041 47.8056 27.4486 48.2103L27.1021 50.7335C27.1021 50.9369 27.0957 51.1363 27.084 51.3325C27.9287 51.5873 28.3484 50.8291 28.4191 50.3085C28.4494 50.0844 28.4992 49.8636 28.5682 49.6481C28.7928 48.9463 29.6036 47.7409 28.7495 46.9582Z" fill="#FCAD6D"/>
<path d="M12.4656 46.9582C12.8064 46.6459 13.4855 46.8042 13.7791 46.9954C13.7147 47.3959 13.7111 47.8056 13.7667 48.2103L14.1131 50.7335C14.1131 50.9369 14.1196 51.1363 14.1313 51.3325C13.2865 51.5873 12.8668 50.8291 12.7962 50.3085C12.7658 50.0844 12.716 49.8636 12.647 49.6481C12.4221 48.9463 11.6115 47.7409 12.4656 46.9582Z" fill="#FD995B"/>
<path d="M27.3323 46.2163C27.2543 46.0129 27.156 45.8068 27.0322 45.6125C26.8224 45.2833 26.7302 44.8941 26.7582 44.506C26.8391 43.3896 26.7958 41.206 25.3301 40.5466C24.085 39.9863 22.5577 40.3107 21.5836 40.6346C20.9511 40.845 20.2654 40.845 19.6329 40.6346C18.6588 40.3107 17.1316 39.9863 15.8864 40.5466C14.4167 41.2078 14.3772 43.402 14.459 44.5155C14.4873 44.9008 14.3925 45.286 14.1842 45.6127C14.0642 45.801 13.9682 46.0001 13.8915 46.1974C13.6425 46.8371 13.5699 47.5309 13.6631 48.2103L14.0096 50.734C14.0096 54.3622 15.9464 56.8284 17.5938 58.1078C18.4538 58.7755 19.515 59.1383 20.6079 59.1383C21.7009 59.1383 22.7621 58.7755 23.6219 58.1078C25.2695 56.8284 27.2062 54.3624 27.2062 50.734L27.5526 48.2108C27.6455 47.538 27.5754 46.8509 27.3323 46.2163Z" fill="#F9BA8F"/>
<path d="M22.4055 58.1068C20.7579 56.8274 18.8212 54.3614 18.8212 50.7329L18.4748 48.2092C18.3815 47.5298 18.4541 46.8361 18.7032 46.1964C18.7799 45.9993 18.8759 45.8 18.9959 45.6117C19.2041 45.285 19.2988 44.8997 19.2706 44.5145C19.1966 43.5077 19.2221 41.6177 20.3141 40.7759C20.0835 40.7538 19.855 40.7075 19.6329 40.6336C18.6588 40.3098 17.1316 39.9853 15.8864 40.5456C14.4167 41.2068 14.3772 43.401 14.459 44.5145C14.4873 44.8997 14.3925 45.285 14.1842 45.6117C14.0642 45.8 13.9682 45.9991 13.8915 46.1964C13.6425 46.8361 13.5699 47.5298 13.6631 48.2092L14.0096 50.7329C14.0096 54.3612 15.9464 56.8274 17.5938 58.1068C18.4538 58.7745 19.515 59.1373 20.6079 59.1373C21.4554 59.1373 22.2834 58.9182 23.0137 58.5089C22.8022 58.3905 22.5984 58.2568 22.4055 58.1068Z" fill="#FCAD6D"/>
</g>
<defs>
<clipPath id="clip0">
<rect width="92" height="92" fill="white"/>
</clipPath>
</defs>
</svg>
