<svg width="110" height="24" viewBox="0 0 110 24" fill="none" xmlns="http://www.w3.org/2000/svg">
<path d="M3.89648 19H1.23389V5.69629H3.89648V11.0215H9.2124V5.69629H11.875V19H9.2124V13.6841H3.89648V19ZM27.3867 12.4038C27.3867 13.0347 27.3032 13.6439 27.1362 14.2314C26.9754 14.8128 26.7466 15.3602 26.4497 15.8735C26.1528 16.3807 25.7941 16.8446 25.3735 17.2651C24.953 17.6857 24.4891 18.0475 23.9819 18.3506C23.4748 18.6475 22.9274 18.8763 22.3398 19.0371C21.7523 19.2041 21.1431 19.2876 20.5122 19.2876C19.8813 19.2876 19.2721 19.2041 18.6846 19.0371C18.1032 18.8763 17.5558 18.6475 17.0425 18.3506C16.5353 18.0475 16.0715 17.6857 15.6509 17.2651C15.2303 16.8446 14.8685 16.3807 14.5654 15.8735C14.2686 15.3602 14.0366 14.8128 13.8696 14.2314C13.7088 13.6439 13.6284 13.0347 13.6284 12.4038C13.6284 11.7729 13.7088 11.1637 13.8696 10.5762C14.0366 9.98861 14.2686 9.44124 14.5654 8.93408C14.8685 8.42692 15.2303 7.96305 15.6509 7.54248C16.0715 7.12191 16.5353 6.76318 17.0425 6.46631C17.5558 6.16943 18.1032 5.94059 18.6846 5.77979C19.2721 5.61279 19.8813 5.5293 20.5122 5.5293C21.1431 5.5293 21.7523 5.61279 22.3398 5.77979C22.9274 5.94059 23.4748 6.16943 23.9819 6.46631C24.4891 6.76318 24.953 7.12191 25.3735 7.54248C25.7941 7.96305 26.1528 8.42692 26.4497 8.93408C26.7466 9.44124 26.9754 9.98861 27.1362 10.5762C27.3032 11.1637 27.3867 11.7729 27.3867 12.4038ZM24.7427 12.4038C24.7427 11.8224 24.6313 11.2751 24.4087 10.7617C24.186 10.2422 23.883 9.79378 23.4995 9.4165C23.1222 9.03304 22.6738 8.72998 22.1543 8.50732C21.641 8.28467 21.0936 8.17334 20.5122 8.17334C19.9246 8.17334 19.3742 8.28467 18.8608 8.50732C18.3475 8.72998 17.8991 9.03304 17.5156 9.4165C17.1322 9.79378 16.8291 10.2422 16.6064 10.7617C16.3838 11.2751 16.2725 11.8224 16.2725 12.4038C16.2725 12.9852 16.3838 13.5326 16.6064 14.0459C16.8291 14.5531 17.1322 14.9984 17.5156 15.3818C17.8991 15.7653 18.3475 16.0684 18.8608 16.291C19.3742 16.5137 19.9246 16.625 20.5122 16.625C21.0936 16.625 21.641 16.5137 22.1543 16.291C22.6738 16.0684 23.1222 15.7653 23.4995 15.3818C23.883 14.9984 24.186 14.5531 24.4087 14.0459C24.6313 13.5326 24.7427 12.9852 24.7427 12.4038ZM39.6328 13.6841C39.6328 14.4201 39.4937 15.1128 39.2153 15.7622C38.937 16.4054 38.5566 16.9683 38.0742 17.4507C37.5918 17.9269 37.0259 18.3042 36.3765 18.5825C35.7332 18.8608 35.0436 19 34.3076 19C33.5716 19 32.8789 18.8608 32.2295 18.5825C31.5863 18.3042 31.0234 17.9269 30.541 17.4507C30.0648 16.9683 29.6875 16.4054 29.4092 15.7622C29.1309 15.1128 28.9917 14.4201 28.9917 13.6841V5.69629H31.645V13.6841C31.645 14.049 31.7131 14.3923 31.8491 14.7139C31.9914 15.0355 32.1831 15.3169 32.4243 15.5581C32.6655 15.7993 32.9469 15.991 33.2686 16.1333C33.5964 16.2694 33.9427 16.3374 34.3076 16.3374C34.6725 16.3374 35.0158 16.2694 35.3374 16.1333C35.6652 15.991 35.9497 15.7993 36.1909 15.5581C36.4321 15.3169 36.6208 15.0355 36.7568 14.7139C36.8991 14.3923 36.9702 14.049 36.9702 13.6841V5.69629H39.6328V13.6841ZM41.1636 9.68555C41.1636 9.13509 41.2687 8.61865 41.479 8.13623C41.6893 7.65381 41.9738 7.23324 42.3325 6.87451C42.6974 6.5096 43.1211 6.22201 43.6035 6.01172C44.0859 5.80143 44.6024 5.69629 45.1528 5.69629H51.2573V8.35889H45.1528C44.9673 8.35889 44.7941 8.3929 44.6333 8.46094C44.4725 8.52897 44.3302 8.62484 44.2065 8.74854C44.089 8.86605 43.9963 9.00521 43.9282 9.16602C43.8602 9.32682 43.8262 9.5 43.8262 9.68555C43.8262 9.87109 43.8602 10.0474 43.9282 10.2144C43.9963 10.3752 44.089 10.5174 44.2065 10.6411C44.3302 10.7586 44.4725 10.8514 44.6333 10.9194C44.7941 10.9875 44.9673 11.0215 45.1528 11.0215H47.8154C48.3659 11.0215 48.8823 11.1266 49.3647 11.3369C49.8534 11.541 50.277 11.8255 50.6357 12.1904C51.0007 12.5492 51.2852 12.9728 51.4893 13.4614C51.6995 13.9438 51.8047 14.4603 51.8047 15.0107C51.8047 15.5612 51.6995 16.0776 51.4893 16.5601C51.2852 17.0425 51.0007 17.4661 50.6357 17.8311C50.277 18.1898 49.8534 18.4743 49.3647 18.6846C48.8823 18.8949 48.3659 19 47.8154 19H41.9058V16.3374H47.8154C48.001 16.3374 48.1742 16.3034 48.335 16.2354C48.4958 16.1673 48.6349 16.0745 48.7524 15.957C48.8761 15.8333 48.972 15.6911 49.04 15.5303C49.1081 15.3695 49.1421 15.1963 49.1421 15.0107C49.1421 14.8252 49.1081 14.652 49.04 14.4912C48.972 14.3304 48.8761 14.1912 48.7524 14.0737C48.6349 13.95 48.4958 13.8542 48.335 13.7861C48.1742 13.7181 48.001 13.6841 47.8154 13.6841H45.1528C44.6024 13.6841 44.0859 13.5789 43.6035 13.3687C43.1211 13.1584 42.6974 12.8739 42.3325 12.5151C41.9738 12.1502 41.6893 11.7266 41.479 11.2441C41.2687 10.7555 41.1636 10.236 41.1636 9.68555Z" fill="white"/>
<path d="M62.6777 19H53.5581V5.69629H62.6777V8.35889H56.2207V11.0215H60.5903V13.6841H56.2207V16.3374H62.6777V19ZM63.6147 9.68555C63.6147 9.13509 63.7199 8.61865 63.9302 8.13623C64.1405 7.65381 64.425 7.23324 64.7837 6.87451C65.1486 6.5096 65.5723 6.22201 66.0547 6.01172C66.5371 5.80143 67.0535 5.69629 67.604 5.69629H73.7085V8.35889H67.604C67.4185 8.35889 67.2453 8.3929 67.0845 8.46094C66.9237 8.52897 66.7814 8.62484 66.6577 8.74854C66.5402 8.86605 66.4474 9.00521 66.3794 9.16602C66.3114 9.32682 66.2773 9.5 66.2773 9.68555C66.2773 9.87109 66.3114 10.0474 66.3794 10.2144C66.4474 10.3752 66.5402 10.5174 66.6577 10.6411C66.7814 10.7586 66.9237 10.8514 67.0845 10.9194C67.2453 10.9875 67.4185 11.0215 67.604 11.0215H70.2666C70.8171 11.0215 71.3335 11.1266 71.8159 11.3369C72.3045 11.541 72.7282 11.8255 73.0869 12.1904C73.4518 12.5492 73.7363 12.9728 73.9404 13.4614C74.1507 13.9438 74.2559 14.4603 74.2559 15.0107C74.2559 15.5612 74.1507 16.0776 73.9404 16.5601C73.7363 17.0425 73.4518 17.4661 73.0869 17.8311C72.7282 18.1898 72.3045 18.4743 71.8159 18.6846C71.3335 18.8949 70.8171 19 70.2666 19H64.3569V16.3374H70.2666C70.4521 16.3374 70.6253 16.3034 70.7861 16.2354C70.9469 16.1673 71.0861 16.0745 71.2036 15.957C71.3273 15.8333 71.4232 15.6911 71.4912 15.5303C71.5592 15.3695 71.5933 15.1963 71.5933 15.0107C71.5933 14.8252 71.5592 14.652 71.4912 14.4912C71.4232 14.3304 71.3273 14.1912 71.2036 14.0737C71.0861 13.95 70.9469 13.8542 70.7861 13.7861C70.6253 13.7181 70.4521 13.6841 70.2666 13.6841H67.604C67.0535 13.6841 66.5371 13.5789 66.0547 13.3687C65.5723 13.1584 65.1486 12.8739 64.7837 12.5151C64.425 12.1502 64.1405 11.7266 63.9302 11.2441C63.7199 10.7555 63.6147 10.236 63.6147 9.68555ZM83.8394 13.6841V11.0215C83.8394 10.6566 83.7682 10.3133 83.626 9.9917C83.4899 9.6639 83.3013 9.37939 83.0601 9.13818C82.8188 8.89697 82.5343 8.70833 82.2065 8.57227C81.8849 8.43001 81.5417 8.35889 81.1768 8.35889C80.8118 8.35889 80.4655 8.43001 80.1377 8.57227C79.8161 8.70833 79.5347 8.89697 79.2935 9.13818C79.0522 9.37939 78.8605 9.6639 78.7183 9.9917C78.5822 10.3133 78.5142 10.6566 78.5142 11.0215V13.6841H83.8394ZM86.502 19H83.8394V16.3374H78.5142V19H75.8608V11.0215C75.8608 10.2855 76 9.59587 76.2783 8.95264C76.5566 8.30322 76.9339 7.7373 77.4102 7.25488C77.8926 6.77246 78.4554 6.39209 79.0986 6.11377C79.748 5.83545 80.4408 5.69629 81.1768 5.69629C81.9128 5.69629 82.6024 5.83545 83.2456 6.11377C83.895 6.39209 84.4609 6.77246 84.9434 7.25488C85.4258 7.7373 85.8062 8.30322 86.0845 8.95264C86.3628 9.59587 86.502 10.2855 86.502 11.0215V19ZM98.1265 19H88.812V5.69629H91.4746V16.3374H98.1265V19ZM108.638 19H99.5181V5.69629H108.638V8.35889H102.181V11.0215H106.55V13.6841H102.181V16.3374H108.638V19Z" fill="#FFC839"/>
</svg>
